<svg width="250" height="250" viewBox="0 0 250 250" xmlns="http://www.w3.org/2000/svg" xml:space="preserve">
    <rect width="100%" height="100%" fill="#ffffff" />
    <g>
        <path d="m162.75613,78.76896l-12.97413,-23.18189c-2.46765,-4.40801 -7.11102,-7.14311 -12.15255,-7.14311l-52.32249,0c-19.79359,0.02656 -35.84596,16.0919 -35.84596,35.90138l0,64.36759l39.85244,0l0,-49.36442c0,-6.05438 4.90856,-10.96692 10.95803,-10.96692l50.88996,0c5.27998,0 9.55194,4.27529 9.55194,9.5596l0,56.58716c0,4.59424 -3.71484,8.33798 -8.33148,8.33798l-55.66578,0l0,38.68972l41.63016,0c5.01479,0 9.63142,-2.68226 12.09907,-7.0366l12.01959,-21.16398c2.54714,-4.48802 7.29601,-7.24976 12.44375,-7.24976l14.88466,0c5.9173,0 10.74566,-4.80596 10.74566,-10.75433l0,-61.34022c0,-5.54986 -4.51042,-10.06411 -10.05558,-10.06411l-18.99766,0c-3.63464,0 -7.0048,-1.96502 -8.78238,-5.1515l0.05275,-0.02659z" />
    </g>
</svg>
