<svg width="100" height="100" viewBox="0 0 100 100" xmlns="http://www.w3.org/2000/svg" xml:space="preserve">
    <rect width="100%" height="100%" fill="#DFFFD8" />
    <g>
        <path d="M 75.429688 81.78125 L 24.761719 81.78125 L 24.761719 77.640625 L 75.429688 77.640625 Z M 59.097656 71.070312 C 60.574219 71.453125 62.109375 70.425781 62.550781 68.773438 C 62.988281 67.121094 62.132812 65.464844 60.660156 65.09375 C 59.1875 64.714844 57.648438 65.726562 57.207031 67.382812 C 56.765625 69.035156 57.621094 70.695312 59.097656 71.066406 Z M 77.460938 20.011719 C 72.863281 16.441406 63.195312 18.871094 55.890625 21.535156 C 47.890625 24.503906 40.261719 28.390625 33.15625 33.117188 C 27.816406 36.71875 21.226562 42.019531 20.199219 46.859375 C 19.898438 48.027344 20.175781 49.269531 20.941406 50.203125 C 22.277344 51.765625 24.527344 51.730469 24.957031 51.707031 C 25.816406 51.703125 26.582031 51.167969 26.878906 50.363281 C 27.179688 49.558594 26.953125 48.652344 26.308594 48.085938 C 25.886719 47.714844 25.332031 47.53125 24.769531 47.574219 C 24.609375 47.578125 24.449219 47.5625 24.292969 47.53125 C 25.828125 41.875 42.007812 31.027344 57.316406 25.4375 C 67.535156 21.710938 73.109375 21.886719 74.925781 23.292969 C 75.675781 23.875 76.070312 24.582031 75.535156 26.105469 C 74.089844 30.171875 67.058594 36.59375 56.710938 43.269531 C 54.789062 44.503906 52.914062 45.644531 51.121094 46.683594 C 52.5625 41.597656 54.035156 36.410156 55.3125 31.957031 C 55.625 30.855469 54.988281 29.710938 53.890625 29.394531 C 52.789062 29.082031 51.644531 29.71875 51.328125 30.816406 C 49.550781 37.039062 47.78125 43.261719 46.027344 49.488281 C 41.882812 51.636719 38.734375 52.933594 37.5 53.105469 C 36.679688 52.699219 35.6875 52.878906 35.0625 53.546875 C 34.4375 54.214844 34.324219 55.214844 34.785156 56.007812 C 35.140625 56.605469 35.84375 57.265625 37.246094 57.265625 C 37.476562 57.265625 37.714844 57.25 37.945312 57.214844 C 39.375 57.019531 41.695312 56.167969 44.523438 54.871094 C 42.515625 62.027344 40.890625 68.046875 40.796875 68.863281 C 40.679688 69.992188 41.496094 71.007812 42.625 71.132812 C 42.703125 71.140625 42.78125 71.140625 42.855469 71.132812 C 43.898438 71.132812 44.777344 70.355469 44.910156 69.320312 C 45.074219 68.3125 47.085938 61.023438 49.53125 52.316406 C 53.15625 50.339844 56.699219 48.21875 60.152344 45.957031 C 74.546875 36.460938 78.710938 30.289062 79.648438 26.78125 C 80.382812 24.082031 79.605469 21.671875 77.464844 20.011719 Z M 77.460938 20.011719 "/>
    </g>
</svg>
