<svg width="250" height="250" xmlns="http://www.w3.org/2000/svg" xml:space="preserve">
    <rect width="100%" height="100%" fill="#DFFFD8" />
    <g>
        <path d="m188.57752,204.45006l-126.67653,0l0,-10.34837l126.67653,0l0,10.34837zm-40.83072,-26.77468c3.68781,0.96002 7.5279,-1.61548 8.62695,-5.74027c1.09906,-4.1314 -1.03947,-8.27605 -4.72066,-9.20297c-3.68119,-0.94016 -7.5279,1.589 -8.63358,5.72703c-1.10568,4.1314 1.03285,8.27605 4.72728,9.20297l0,0.01324zm45.9089,-127.6498c-11.5004,-8.91827 -35.66647,-2.84696 -53.92674,3.8136a276.13537,276.12213 0 0 0 -56.83991,28.95293c-13.34761,9.00434 -29.82688,22.25926 -32.38915,34.35554a9.4678,9.4678 0 0 0 1.85384,8.36212c3.34352,3.9063 8.96462,3.8136 10.03719,3.76064a5.17088,5.17088 0 0 0 3.37663,-9.05731a5.18412,5.18412 0 0 0 -3.84009,-1.27782a5.80648,5.80648 0 0 1 -1.19837,-0.10593c3.84009,-14.14211 44.29342,-41.26107 82.56187,-55.23105c25.5432,-9.32214 39.48669,-8.88517 44.02197,-5.36288c1.88032,1.45658 2.86682,3.22435 1.52279,7.03133c-3.60836,10.16299 -21.18669,26.21853 -47.06093,42.90304c-4.80011,3.09193 -9.49428,5.94551 -13.96997,8.54088c3.60174,-12.71201 7.28292,-25.68886 10.47417,-36.81849a5.1775,5.1775 0 0 0 -9.95774,-2.84696a13709.90579,13709.3364 0 0 0 -13.25492,46.67692c-10.35499,5.3695 -18.23379,8.60709 -21.3191,9.04407a5.18412,5.18412 0 0 0 -6.78636,7.24982c0.88719,1.49631 2.64834,3.15152 6.15076,3.15152c0.58263,0 1.17189,-0.04635 1.7479,-0.13242c3.57525,-0.48332 9.38173,-2.61523 16.45279,-5.85282c-5.0186,17.88951 -9.09041,32.93868 -9.31552,34.97128a5.17088,5.17088 0 0 0 4.56838,5.68068a4.42272,4.42272 0 0 0 0.57601,0a5.18412,5.18412 0 0 0 5.13115,-4.53528c0.41049,-2.51592 5.44233,-20.74309 11.55999,-42.50579a385.60434,385.5911 0 0 0 26.54957,-15.89664c35.98427,-23.74895 46.39223,-39.17551 48.74262,-47.9415c1.83397,-6.75326 -0.11255,-12.77822 -5.46219,-16.92949l-0.00662,0z"/>
    </g>
</svg>
