<svg width="100" height="100" viewBox="0 0 100 100" xmlns="http://www.w3.org/2000/svg" xml:space="preserve">
    <rect width="100%" height="100%" fill="#F7C8E0" />
    <g>
        <path d="m65.51401,31.00365l-5.33107,-9.52545c-1.01396,-1.81125 -2.92192,-2.93511 -4.99349,-2.93511l-21.49933,0c-8.13319,0.01091 -14.72912,6.61217 -14.72912,14.75189l0,26.44866l16.37538,0l0,-20.28386c0,-2.48775 2.01693,-4.50631 4.50266,-4.50631l20.9107,0c2.16955,0 3.9249,1.75672 3.9249,3.92804l0,23.25168c0,1.88777 -1.52643,3.42608 -3.42341,3.42608l-22.87309,0l0,15.89762l17.10585,0c2.06058,0 3.95755,-1.10214 4.97151,-2.89134l4.93885,-8.69629c1.04662,-1.84413 2.99793,-2.97893 5.11314,-2.97893l6.11611,0c2.43142,0 4.4154,-1.97477 4.4154,-4.41896l0,-25.20472c0,-2.28044 -1.85333,-4.13535 -4.13184,-4.13535l-7.80614,0c-1.49347,0 -2.87827,-0.80743 -3.60868,-2.11675l0.02167,-0.01093z" id="svg_4"/>
    </g>
</svg>
